<mxfile host="app.diagrams.net" modified="2023-04-29T08:04:29.451Z" agent="Mozilla/5.0 (Windows NT 10.0; Win64; x64) AppleWebKit/537.36 (KHTML, like Gecko) Chrome/112.0.0.0 Safari/537.36" etag="fJBj8WrS2xirKb1vnfk3" version="21.2.3" type="device">
  <diagram name="Trang-1" id="TN9zLH_Hhk0xKgqk8qip">
    <mxGraphModel dx="1290" dy="541" grid="1" gridSize="10" guides="1" tooltips="1" connect="1" arrows="1" fold="1" page="1" pageScale="1" pageWidth="827" pageHeight="1169" math="0" shadow="0">
      <root>
        <mxCell id="0" />
        <mxCell id="1" parent="0" />
        <mxCell id="7duxl3aoyMeXJ1m3sggS-1" value="Người dùng" style="shape=umlActor;verticalLabelPosition=bottom;verticalAlign=top;html=1;outlineConnect=0;" vertex="1" parent="1">
          <mxGeometry x="40" y="270" width="30" height="60" as="geometry" />
        </mxCell>
        <mxCell id="7duxl3aoyMeXJ1m3sggS-2" value="" style="rounded=0;whiteSpace=wrap;html=1;" vertex="1" parent="1">
          <mxGeometry x="120" y="120" width="600" height="360" as="geometry" />
        </mxCell>
        <mxCell id="7duxl3aoyMeXJ1m3sggS-3" value="Chọn Phương Thức Thanh Toán" style="text;align=center;fontStyle=1;verticalAlign=middle;spacingLeft=3;spacingRight=3;strokeColor=none;rotatable=0;points=[[0,0.5],[1,0.5]];portConstraint=eastwest;html=1;" vertex="1" parent="1">
          <mxGeometry x="374" y="130" width="80" height="26" as="geometry" />
        </mxCell>
        <mxCell id="7duxl3aoyMeXJ1m3sggS-4" value="management &lt;br&gt;Phương thức" style="ellipse;whiteSpace=wrap;html=1;" vertex="1" parent="1">
          <mxGeometry x="170" y="270" width="120" height="50" as="geometry" />
        </mxCell>
        <mxCell id="7duxl3aoyMeXJ1m3sggS-5" value="" style="endArrow=none;dashed=1;html=1;dashPattern=1 3;strokeWidth=2;rounded=0;" edge="1" parent="1">
          <mxGeometry width="50" height="50" relative="1" as="geometry">
            <mxPoint x="250" y="270" as="sourcePoint" />
            <mxPoint x="290" y="230" as="targetPoint" />
          </mxGeometry>
        </mxCell>
        <mxCell id="7duxl3aoyMeXJ1m3sggS-6" value="Thẻ Tín Dụng / Ví" style="shape=note;whiteSpace=wrap;html=1;backgroundOutline=1;darkOpacity=0.05;size=16;" vertex="1" parent="1">
          <mxGeometry x="210" y="190" width="130" height="40" as="geometry" />
        </mxCell>
        <mxCell id="7duxl3aoyMeXJ1m3sggS-7" value="Xác Nhận Thanh Toán" style="ellipse;whiteSpace=wrap;html=1;" vertex="1" parent="1">
          <mxGeometry x="370" y="270" width="120" height="50" as="geometry" />
        </mxCell>
        <mxCell id="7duxl3aoyMeXJ1m3sggS-8" value="" style="endArrow=none;html=1;rounded=0;exitX=1;exitY=0.3333333333333333;exitDx=0;exitDy=0;exitPerimeter=0;entryX=0;entryY=0.5;entryDx=0;entryDy=0;" edge="1" parent="1" source="7duxl3aoyMeXJ1m3sggS-1" target="7duxl3aoyMeXJ1m3sggS-4">
          <mxGeometry width="50" height="50" relative="1" as="geometry">
            <mxPoint x="390" y="330" as="sourcePoint" />
            <mxPoint x="440" y="280" as="targetPoint" />
          </mxGeometry>
        </mxCell>
        <mxCell id="7duxl3aoyMeXJ1m3sggS-9" value="&amp;lt;&amp;lt;include&amp;gt;&amp;gt;" style="html=1;verticalAlign=bottom;endArrow=block;edgeStyle=elbowEdgeStyle;elbow=vertical;curved=0;rounded=0;" edge="1" parent="1">
          <mxGeometry width="80" relative="1" as="geometry">
            <mxPoint x="290" y="294.5" as="sourcePoint" />
            <mxPoint x="370" y="294.5" as="targetPoint" />
          </mxGeometry>
        </mxCell>
        <mxCell id="7duxl3aoyMeXJ1m3sggS-10" value="Hệ Thống" style="shape=umlActor;verticalLabelPosition=bottom;verticalAlign=top;html=1;outlineConnect=0;" vertex="1" parent="1">
          <mxGeometry x="770" y="260" width="30" height="60" as="geometry" />
        </mxCell>
        <mxCell id="7duxl3aoyMeXJ1m3sggS-13" value="&amp;lt;&amp;lt;include&amp;gt;&amp;gt;" style="html=1;verticalAlign=bottom;endArrow=block;edgeStyle=elbowEdgeStyle;elbow=vertical;curved=0;rounded=0;" edge="1" parent="1">
          <mxGeometry width="80" relative="1" as="geometry">
            <mxPoint x="490" y="294.5" as="sourcePoint" />
            <mxPoint x="570" y="294.5" as="targetPoint" />
          </mxGeometry>
        </mxCell>
        <mxCell id="7duxl3aoyMeXJ1m3sggS-14" value="Hiển Thị &lt;br&gt;Thông Báo" style="ellipse;whiteSpace=wrap;html=1;" vertex="1" parent="1">
          <mxGeometry x="570" y="270" width="120" height="50" as="geometry" />
        </mxCell>
        <mxCell id="7duxl3aoyMeXJ1m3sggS-15" value="" style="endArrow=none;html=1;rounded=0;exitX=1;exitY=0.5;exitDx=0;exitDy=0;entryX=0.5;entryY=0.5;entryDx=0;entryDy=0;entryPerimeter=0;" edge="1" parent="1" source="7duxl3aoyMeXJ1m3sggS-14" target="7duxl3aoyMeXJ1m3sggS-10">
          <mxGeometry width="50" height="50" relative="1" as="geometry">
            <mxPoint x="690" y="277.5" as="sourcePoint" />
            <mxPoint x="790" y="282.5" as="targetPoint" />
          </mxGeometry>
        </mxCell>
      </root>
    </mxGraphModel>
  </diagram>
</mxfile>
